<svg width="25" height="25" viewBox="0 0 25 25" fill="none" xmlns="http://www.w3.org/2000/svg">
<g clip-path="url(#clip0)">
<path d="M21.5833 2.3125L20.7542 3.14167C18.501 1.13437 15.5979 0 12.5 0C5.60729 0 0 5.60729 0 12.5C0 13.7219 0.180208 14.9365 0.534375 16.1104C0.658333 16.5219 1.09063 16.7573 1.50833 16.6333C1.92083 16.5083 2.15521 16.0729 2.03021 15.6594C1.71979 14.6312 1.5625 13.5687 1.5625 12.5C1.5625 6.46875 6.46875 1.5625 12.5 1.5625C15.1781 1.5625 17.6896 2.53125 19.649 4.24583L18.9792 4.91667C18.4875 5.40625 18.8344 6.25 19.5313 6.25H22.1354C22.5667 6.25 22.9167 5.9 22.9167 5.46875V2.86458C22.9167 2.17396 22.0781 1.81875 21.5833 2.3125Z" fill="white"/>
<path d="M24.4657 8.8896C24.3407 8.4771 23.9084 8.24064 23.4917 8.36668C23.0792 8.49168 22.8448 8.9271 22.9698 9.34064C23.2802 10.3688 23.4375 11.4313 23.4375 12.5C23.4375 18.5313 18.5313 23.4375 12.5 23.4375C9.82192 23.4375 7.31046 22.4688 5.35108 20.7542L6.02087 20.0834C6.51254 19.5938 6.16567 18.75 5.46879 18.75H2.86462C2.43337 18.75 2.08337 19.1 2.08337 19.5313V22.1354C2.08337 22.8323 2.92817 23.1761 3.41671 22.6875L4.24587 21.8584C6.499 23.8656 9.40212 25 12.5 25C19.3927 25 25 19.3927 25 12.5C25 11.2781 24.8198 10.0636 24.4657 8.8896Z" fill="white"/>
<path d="M12.4999 5.20837L19.7916 8.33337L12.4999 11.4584L5.20825 8.33337L12.4999 5.20837Z" fill="white"/>
<path d="M11.4582 13.2781L5.20825 10.6V16.6666C5.20825 16.8823 5.34054 17.076 5.54159 17.1531L11.4582 19.4281V13.2781Z" fill="white"/>
<path d="M13.5416 13.2781V19.4281L19.4583 17.1521C19.6593 17.076 19.7916 16.8823 19.7916 16.6666V10.6L13.5416 13.2781Z" fill="white"/>
</g>
<defs>
<clipPath id="clip0">
<rect width="25" height="25" fill="white"/>
</clipPath>
</defs>
</svg>
