<svg width="12" height="30" viewBox="0 0 12 30" fill="none" xmlns="http://www.w3.org/2000/svg">
<path d="M11.0282 22.4309C10.7131 22.1158 10.2265 22.1158 9.91135 22.4309L7.0321 25.3362V4.4308L9.92464 7.34967C10.0764 7.50186 10.267 7.58576 10.4831 7.58576C10.6991 7.58576 10.8958 7.50186 11.0482 7.34967L11.4789 6.91571C11.6311 6.76352 11.7132 6.56052 11.7132 6.34401C11.7132 6.12773 11.6288 5.9245 11.4766 5.77254L6.49443 0.79107C6.33874 0.635151 6.13015 0.551948 5.9162 0.555677C5.69316 0.551715 5.48434 0.634918 5.32888 0.790837L0.349277 5.77044C0.0446649 6.07482 0.0446649 6.60947 0.349277 6.91361L0.783006 7.34757C1.09834 7.66244 1.63205 7.66244 1.94645 7.34734L4.79074 4.52403V25.2656L1.93363 22.4286C1.61807 22.1135 1.09484 22.1135 0.779743 22.4286L0.34112 22.8625C0.0360417 23.1669 0.0337117 23.7015 0.338324 24.0057L5.31816 28.9874C5.47431 29.1429 5.68197 29.2265 5.89592 29.2221C6.11896 29.2265 6.32732 29.1431 6.48301 28.9874L11.4624 24.0078C11.7672 23.7034 11.7672 23.169 11.4624 22.8646L11.0282 22.4309Z" fill="#F4573C"/>
</svg>
