<svg width="35" height="35" viewBox="0 0 35 35" fill="none" xmlns="http://www.w3.org/2000/svg">
<g clip-path="url(#clip0)">
<path d="M34.7253 24.5468C34.6931 24.3418 34.6439 24.1398 34.5781 23.943C33.949 22.1922 32.1552 21.1447 30.3212 21.4571C29.7146 21.5526 29.1453 21.1383 29.0497 20.5317L28.1268 14.6271C27.3694 9.63134 23.7604 5.54017 18.8982 4.16547C18.4559 1.45899 15.9034 -0.376608 13.1969 0.0656179C10.5262 0.502006 8.69661 2.99649 9.08286 5.67495C4.89178 8.32728 2.67949 13.218 3.45477 18.1168L4.44365 24.4012C4.53421 25.0067 4.12219 25.5728 3.51833 25.6728C1.67689 25.9385 0.290956 27.4862 0.229146 29.3456C0.207838 31.409 1.86327 33.099 3.92662 33.1203C3.93954 33.1204 3.95253 33.1205 3.96545 33.1205C4.16021 33.1204 4.35462 33.1054 4.54705 33.0757L8.38048 32.4729C9.71402 34.8535 12.7249 35.7024 15.1055 34.3688C16.3629 33.6645 17.25 32.4462 17.5344 31.0332L31.6141 28.8176C33.6525 28.4974 35.0455 26.5854 34.7253 24.5468ZM13.63 2.64986C13.7598 2.62965 13.8909 2.61922 14.0223 2.6187C14.8572 2.62316 15.6349 3.04356 16.0959 3.73959H16.0362C15.5717 3.72558 15.1067 3.73894 14.6437 3.77944C14.1562 3.826 13.6717 3.90087 13.1928 4.00361C13.0894 4.02478 12.9873 4.0547 12.8851 4.07958C12.4928 4.17175 12.1079 4.28012 11.7306 4.4084C11.6932 4.41964 11.6546 4.42585 11.6173 4.43957C11.88 3.50046 12.6666 2.801 13.63 2.64986ZM12.6834 32.5091C12.1556 32.5097 11.6416 32.3402 11.2176 32.0258L14.7048 31.4791C14.2355 32.1271 13.4835 32.5103 12.6834 32.5091ZM32.096 25.7751C31.9053 26.0882 31.5864 26.3014 31.2242 26.3579L16.223 28.7167L8.93348 29.8637L4.1635 30.611C3.80213 30.67 3.43331 30.565 3.15718 30.3246C2.87535 30.0843 2.71517 29.7309 2.72006 29.3606C2.77399 28.7218 3.26927 28.2089 3.90568 28.1326C5.86724 27.8181 7.20661 25.9785 6.9034 24.0152L5.91576 17.7308C5.26892 13.5848 7.28207 9.47656 10.9548 7.44728C10.9764 7.44006 10.9976 7.43174 11.0183 7.4224C12.2103 6.77657 13.5215 6.38069 14.8716 6.25918C15.2808 6.22321 15.6919 6.21533 16.1021 6.23554L16.3064 6.24554C16.7308 6.27123 17.153 6.32442 17.5705 6.40499C17.5843 6.40499 17.5967 6.40499 17.6104 6.40499C21.8245 7.31666 25.032 10.7454 25.6609 15.0109L26.59 20.9155C26.8988 22.8808 28.742 24.2239 30.7073 23.9158C31.3355 23.7931 31.9635 24.1279 32.2119 24.7179C32.3332 25.0697 32.2907 25.4576 32.096 25.7751Z" fill="#F4573C"/>
</g>
<defs>
<clipPath id="clip0">
<rect width="35" height="35" fill="white"/>
</clipPath>
</defs>
</svg>
