<svg width="26" height="26" viewBox="0 0 26 26" fill="none" xmlns="http://www.w3.org/2000/svg">
<path d="M3.21917 8.60903C3.56905 6.65857 4.46006 4.89032 5.79602 3.49551C6.18403 3.09043 6.17022 2.44754 5.76509 2.05957C5.35996 1.67145 4.71707 1.68541 4.32915 2.0905C2.71567 3.77501 1.64048 5.90508 1.21986 8.25041C1.12084 8.80251 1.48809 9.33038 2.04018 9.4294C2.10092 9.44022 2.16114 9.4455 2.22071 9.4455C2.70308 9.4455 3.13107 9.10044 3.21917 8.60903Z" fill="#F4573C"/>
<path d="M23.1321 17.0521C23.0758 17.0301 22.2836 16.7108 21.7014 15.9784C21.3523 15.5394 20.7134 15.4665 20.2742 15.8155C19.8352 16.1646 19.7623 16.8035 20.1113 17.2426C20.6364 17.9029 21.2469 18.3421 21.7131 18.6119C21.6352 19.0494 21.4706 19.5382 21.1827 19.9531C20.7305 20.605 20.0917 20.9219 19.2301 20.9219H6.84052C5.26976 20.9219 4.56888 19.6058 4.36621 18.6066C4.66597 18.433 5.02581 18.1906 5.38645 17.8661C6.53665 16.8312 7.14465 15.4647 7.14465 13.9141V10.3594C7.14465 7.15447 9.74257 4.51217 12.9359 4.46931C12.9447 4.46921 12.9533 4.46799 12.9621 4.46763C12.9696 4.46778 12.9769 4.46875 12.9845 4.46875C13.0113 4.46875 13.0376 4.46677 13.0638 4.46474C13.0873 4.46667 13.1107 4.46895 13.1347 4.46926C16.356 4.51252 18.9767 7.15482 18.9767 10.3594V11.7812C18.9767 12.3422 19.4314 12.7969 19.9923 12.7969C20.5532 12.7969 21.0079 12.3422 21.0079 11.7812V10.3594C21.0079 6.33176 17.9337 2.96507 14.0001 2.49417V1.01562C14.0001 0.454695 13.5454 0 12.9845 0C12.4236 0 11.9689 0.454695 11.9689 1.01562V2.50682C10.2395 2.7364 8.64082 3.53219 7.39318 4.80055C5.92306 6.29505 5.1134 8.26922 5.1134 10.3594V13.9141C5.1134 16.1821 3.07002 17.0018 2.93834 17.0521C2.53021 17.1941 2.26965 17.5743 2.26965 18.0067C2.26965 19.0727 2.6494 20.2381 3.28543 21.1243C4.1319 22.3036 5.39453 22.9531 6.84052 22.9531H9.9884C9.9884 24.6332 11.3552 26 13.0353 26C14.7153 26 16.0822 24.6332 16.0822 22.9531H19.23C21.1669 22.9531 22.2685 21.9514 22.8515 21.1111C23.7084 19.8762 23.8008 18.5287 23.8008 18.0067C23.8009 17.5741 23.5404 17.1939 23.1321 17.0521ZM13.0353 23.9688C12.4753 23.9688 12.0197 23.5131 12.0197 22.9531H14.0509C14.0509 23.5131 13.5953 23.9688 13.0353 23.9688Z" fill="#F4573C"/>
<path d="M24.7802 8.28153C24.3556 5.91441 23.2394 3.69669 21.6371 2.0368C21.2475 1.63325 20.6046 1.62192 20.201 2.01146C19.7974 2.40106 19.7861 3.044 20.1756 3.44756C21.5014 4.82094 22.4266 6.66501 22.7809 8.64014C22.869 9.1316 23.297 9.47661 23.7794 9.47661C23.8389 9.47661 23.8993 9.47138 23.9599 9.46051C24.512 9.36149 24.8793 8.83362 24.7802 8.28153Z" fill="#F4573C"/>
</svg>
