<svg width="31" height="19" viewBox="0 0 31 19" fill="none" xmlns="http://www.w3.org/2000/svg">
<path d="M25.4902 18.582H5.50977C4.05361 18.582 2.67654 18.0173 1.63222 16.9918C0.579676 15.9584 0 14.5878 0 13.1328C0 11.6778 0.579676 10.3073 1.63222 9.2738C2.45651 8.46441 3.48811 7.94207 4.60229 7.75782C4.6018 7.73324 4.60156 7.70848 4.60156 7.68359C4.60156 3.67733 7.86092 0.417969 11.8672 0.417969C13.3529 0.417969 14.7806 0.865228 15.9961 1.71143C16.8518 2.30709 17.5622 3.07029 18.0903 3.95427C18.9427 3.42551 19.9259 3.14258 20.9492 3.14258C23.6669 3.14258 25.9263 5.1422 26.3331 7.74753C27.4721 7.92191 28.5276 8.44872 29.3678 9.2738C30.4203 10.3073 31 11.6777 31 13.1328C31 14.5879 30.4203 15.9584 29.3678 16.9918C28.3235 18.0173 26.9464 18.582 25.4902 18.582ZM5.50977 9.5C3.47321 9.5 1.81641 11.1297 1.81641 13.1328C1.81641 15.1359 3.47321 16.7656 5.50977 16.7656H25.4902C27.5268 16.7656 29.1836 15.1359 29.1836 13.1328C29.1836 11.1297 27.5268 9.5 25.4902 9.5H24.582V8.5918C24.582 6.58866 22.9524 4.95898 20.9492 4.95898C19.9946 4.95898 19.0916 5.32953 18.4066 6.00239L17.429 6.96254L16.9255 5.68809C16.0967 3.59008 14.1112 2.23438 11.8672 2.23438C8.86249 2.23438 6.41797 4.67889 6.41797 7.68359C6.41797 7.89817 6.45163 8.12855 6.48723 8.3725L6.64992 9.5H5.50977Z" fill="#F4573C"/>
</svg>
