<svg width="25" height="25" viewBox="0 0 25 25" fill="none" xmlns="http://www.w3.org/2000/svg">
<path d="M12.5 0C5.59158 0 0 5.59063 0 12.5C0 19.4084 5.59063 25 12.5 25C19.4084 25 25 19.4094 25 12.5C25 5.59158 19.4094 0 12.5 0ZM12.5 23.0469C6.67095 23.0469 1.95312 18.3296 1.95312 12.5C1.95312 6.67095 6.67038 1.95312 12.5 1.95312C18.329 1.95312 23.0469 6.67038 23.0469 12.5C23.0469 18.329 18.3296 23.0469 12.5 23.0469ZM21.2891 9.8959V13.6068C21.2891 14.1462 20.8519 14.5834 20.3125 14.5834C19.7731 14.5834 19.3359 14.1462 19.3359 13.6068V12.2536L15.7948 15.7948C15.4133 16.176 14.7949 16.176 14.4136 15.7948L9.8959 11.277L5.37815 15.7948C4.99668 16.176 4.37851 16.1762 3.99704 15.7948C3.61576 15.4133 3.61576 14.7949 3.99704 14.4136L9.20544 9.20525C9.58691 8.82397 10.2051 8.82397 10.5865 9.20525L15.1043 13.7232L17.9548 10.8725H16.6016C16.0622 10.8725 15.625 10.4353 15.625 9.8959C15.625 9.3565 16.0622 8.91933 16.6016 8.91933H20.3125C20.8599 8.91933 21.2891 9.36813 21.2891 9.8959Z" fill="#F4573C"/>
</svg>
