<svg width="42" height="42" viewBox="0 0 42 42" fill="none" xmlns="http://www.w3.org/2000/svg">
<path d="M42 18.375V15.75H34.125V10.5H36.75V7.875H34.125V5.25H31.5V7.875H26.25V0H23.625V7.875H18.375V5.25H15.75V7.875H10.5V5.25H7.875V7.875H0V10.5H7.875V15.75H5.25V18.375H7.875V23.625H0V26.25H7.875V31.5H5.25V34.125H7.875V36.75H10.5V34.125H15.75V42H18.375V34.125H23.625V36.75H26.25V34.125H31.5V36.75H34.125V34.125H42V31.5H34.125V26.25H36.75V23.625H34.125V18.375H42ZM15.75 31.5H10.5V26.25H15.75V31.5ZM15.75 23.625H10.5V18.375H15.75V23.625ZM15.75 15.75H10.5V10.5H15.75V15.75ZM23.625 31.5H18.375V26.25H23.625V31.5ZM23.625 23.625H18.375V18.375H23.625V23.625ZM23.625 15.75H18.375V10.5H23.625V15.75ZM31.5 31.5H26.25V26.25H31.5V31.5ZM31.5 23.625H26.25V18.375H31.5V23.625ZM31.5 15.75H26.25V10.5H31.5V15.75Z" fill="#F4573C"/>
<path d="M10.5 0H7.875V2.625H10.5V0Z" fill="#F4573C"/>
<path d="M34.125 39.375H31.5V42H34.125V39.375Z" fill="#F4573C"/>
</svg>
