<svg width="84" height="25" viewBox="0 0 84 25" fill="none" xmlns="http://www.w3.org/2000/svg">
<path d="M15.8291 17.8528H12.1089L12.2305 10.8732C12.2305 10.6283 12.1818 10.5059 12.0846 10.5059C12.0116 10.5059 11.9387 10.6528 11.8658 10.9222L10.1151 16.4569C9.94486 16.9712 9.75034 17.3385 9.53151 17.5344C9.1911 17.8528 8.65616 17.9997 7.92671 17.9997C7.19726 17.9997 6.66233 17.8528 6.32192 17.5344C6.10308 17.3385 5.90856 16.9712 5.73836 16.4569L3.93904 10.8977C3.84178 10.6283 3.76884 10.4814 3.72021 10.4814C3.62295 10.4814 3.59863 10.6038 3.59863 10.8487L3.72021 17.8283H0V8.25279C0 6.90585 0.923973 6.24463 2.79623 6.24463C3.45274 6.24463 3.98767 6.34259 4.40103 6.51402C5.0089 6.80789 5.47089 7.34667 5.71404 8.13034L7.56199 13.714C7.68356 14.0569 7.80514 14.2283 7.9024 14.2283C7.99966 14.2283 8.12123 14.0569 8.24281 13.714L10.0908 8.13034C10.3582 7.34667 10.7959 6.80789 11.4038 6.51402C11.8171 6.3181 12.3521 6.24463 13.0086 6.24463C14.8808 6.24463 15.8048 6.90585 15.8048 8.25279L15.8291 17.8528Z" fill="#242524"/>
<path d="M21.1296 17.8529H17.458V6.36719H21.1296V17.8529Z" fill="#242524"/>
<path d="M34.4787 17.8529H30.0533L27.865 14.8651C27.3543 14.1549 27.0869 13.6407 27.0869 13.2978V13.0529C27.0869 12.6611 27.2328 12.3672 27.5489 12.1223C27.865 11.8774 28.254 11.7549 28.7403 11.7549H29.3239C29.8345 11.7549 30.1749 11.6325 30.3451 11.4121C30.5153 11.2162 30.5882 10.8978 30.5882 10.457C30.5882 10.0162 30.491 9.6978 30.3208 9.50188C30.1506 9.30596 29.7858 9.208 29.2752 9.208H27.2328C26.9653 9.208 26.7708 9.28147 26.6492 9.40392C26.5276 9.52637 26.4547 9.77127 26.4547 10.1141V17.8529H22.7588V8.57127C22.7588 7.81209 22.9047 7.24882 23.1965 6.93045C23.5126 6.56311 24.0232 6.36719 24.7283 6.36719H30.9287C32.2417 6.36719 33.1413 6.73453 33.6519 7.49372C34.041 8.08147 34.2355 8.96311 34.2355 10.1141C34.2355 11.3141 34.0896 12.2692 33.8221 12.9305C33.4088 13.8856 32.7037 14.3509 31.7067 14.3509H31.2204V14.4243L34.4787 17.8529Z" fill="#242524"/>
<path d="M45.2747 17.853H40.2172C39.2689 17.853 38.5152 17.755 37.9559 17.5836C37.2994 17.3632 36.7645 16.9713 36.3268 16.4326C35.6217 15.5509 35.2812 14.155 35.2812 12.2448C35.2812 10.1632 35.6217 8.69379 36.2782 7.83665C37.0562 6.83257 38.3936 6.34277 40.2658 6.34277H45.0802V9.20808H42.0408C41.2871 9.20808 40.7521 9.25706 40.4847 9.33053C40.0227 9.42849 39.658 9.69788 39.4391 10.1142C39.196 10.555 39.0744 11.2407 39.0744 12.1713C39.0744 13.102 39.1717 13.7142 39.3419 14.0815C39.5607 14.4979 39.9254 14.7428 40.4604 14.8652C40.7765 14.9387 41.3357 14.9877 42.1138 14.9877H45.2747V17.853Z" fill="#F05729"/>
<path fill-rule="evenodd" clip-rule="evenodd" d="M58.1617 14.5713C58.2833 13.9836 58.3319 13.1509 58.3319 12.0978C58.3319 11.0448 58.2833 10.2121 58.2104 9.59988C58.0158 8.62029 57.6268 7.91009 57.0919 7.3958C56.5569 6.88152 55.8032 6.53866 54.8062 6.36723C54.1497 6.24478 53.2744 6.1958 52.1073 6.1958C50.9401 6.1958 50.0405 6.26927 49.4083 6.36723C48.4357 6.56315 47.6576 6.88152 47.1227 7.3958C46.5634 7.91009 46.1987 8.64478 46.0042 9.59988C45.8826 10.2121 45.834 11.0448 45.834 12.0978C45.834 13.1509 45.8826 13.9591 46.0042 14.5713C46.1987 15.5264 46.5634 16.2611 47.0984 16.7754C47.6333 17.2897 48.3871 17.6325 49.4083 17.804C50.0405 17.9264 50.9401 17.9754 52.083 17.9754C53.2258 17.9754 54.1254 17.9019 54.7576 17.804C55.7545 17.6325 56.5326 17.2897 57.0675 16.7754C57.6025 16.2611 57.9672 15.5264 58.1617 14.5713ZM54.5145 10.8734C54.5388 11.0938 54.5631 11.4856 54.5631 12.0978C54.5631 13.1509 54.4172 13.8611 54.1497 14.2774C53.9066 14.6203 53.6148 14.8652 53.2744 14.9876C53.0069 15.0611 52.5936 15.1101 52.0586 15.1101C51.5237 15.1101 51.1104 15.0856 50.8429 14.9876C50.4782 14.8652 50.1864 14.6203 49.9675 14.2774C49.7001 13.8366 49.5542 13.1264 49.5542 12.0978C49.5542 11.0693 49.6758 10.3346 49.9675 9.91825C50.2107 9.57539 50.5025 9.33049 50.8429 9.20805C51.1347 9.13458 51.5237 9.0856 52.0586 9.0856C52.6179 9.0856 53.0069 9.11009 53.2744 9.20805C53.6148 9.33049 53.9066 9.57539 54.1497 9.91825C54.3443 10.2121 54.4658 10.5305 54.5145 10.8734Z" fill="#F05729"/>
<path fill-rule="evenodd" clip-rule="evenodd" d="M70.1242 16.408C70.7078 15.5998 70.9996 14.1549 70.9996 12.0488C70.9996 9.99168 70.6592 8.54678 69.954 7.76311C69.1516 6.83249 68.0331 6.36719 66.5499 6.36719H61.3465C60.7629 6.36719 60.3009 6.53862 59.9848 6.93045C59.7417 7.22433 59.6201 7.71413 59.6201 8.42433V16.1631C59.6201 16.7019 59.7903 17.1182 60.1307 17.4366C60.4468 17.706 60.9088 17.8529 61.4924 17.8529H66.8417C68.3492 17.8529 69.4191 17.3631 70.1242 16.408ZM66.477 9.59984C66.9876 10.0407 67.2307 10.8488 67.2307 11.9998C67.2307 13.1509 67.0605 13.9345 66.7687 14.3019C66.404 14.7427 65.6746 14.9631 64.629 14.9631H64.1184C63.8509 14.9631 63.6564 14.9141 63.5348 14.7917C63.4133 14.6692 63.3646 14.4488 63.3646 14.106V9.86923C63.3646 9.55086 63.4376 9.33045 63.5835 9.23249C63.6807 9.15902 63.8753 9.11004 64.1427 9.11004H64.4102C65.4071 9.11004 66.1122 9.28147 66.477 9.59984Z" fill="#F05729"/>
<path d="M61.1379 23.5294C58.9824 23.5294 56.3668 23.5049 56.1973 23.5049V22.5245C56.2699 22.5245 62.3246 22.5736 63.6324 22.5245C64.6012 22.5245 64.698 22.0344 64.698 21.4706V17.9902H65.6668V21.4706C65.6668 23.2353 64.4074 23.5049 63.6566 23.5049C63.2207 23.5294 62.2277 23.5294 61.1379 23.5294Z" fill="#F05729"/>
<path d="M68.1133 7.00964H67.1445V3.52924C67.1445 1.76454 68.4039 1.49493 69.1547 1.49493C70.4625 1.44591 76.9531 1.49493 77.2195 1.49493V2.47532C77.1469 2.47532 70.4867 2.4263 69.1789 2.47532C68.2102 2.47532 68.1133 2.96552 68.1133 3.52924V7.00964Z" fill="#F05729"/>
<path d="M65.9092 7.00964H64.9404V4.43611C64.9404 4.43611 64.9404 4.19101 64.8193 4.04395C64.7467 3.94592 64.5771 3.8969 64.3834 3.8969H62.0342V2.9165H64.3834C64.9889 2.9165 65.3521 3.1616 65.5459 3.38219C65.9334 3.79886 65.9092 4.33807 65.9092 4.48513V7.00964Z" fill="#F05729"/>
<path d="M81.3117 10.6126H80.343V7.2302C80.343 6.88707 80.2461 6.61746 80.0766 6.44589C79.8102 6.20079 79.3742 6.2253 79.3742 6.2253H79.35H71.2852C70.9945 6.2253 70.5828 6.27432 70.3648 6.49491C70.1711 6.69099 70.1953 6.9606 70.1953 6.9606V6.98511V8.08805H69.2266V7.00962C69.2266 6.86256 69.2266 6.29883 69.6625 5.83315C70.0258 5.44099 70.5828 5.2204 71.2852 5.2204H79.3258C79.4711 5.2204 80.1977 5.19589 80.7305 5.7106C81.118 6.05373 81.3117 6.56844 81.3117 7.20569V10.6126Z" fill="#F05729"/>
<rect x="70.7773" y="8.9458" width="4.48047" height="0.980392" fill="#F05729"/>
<rect x="70.3408" y="15.9067" width="2.10703" height="0.980392" fill="#F05729"/>
<path d="M77.2187 20.9069H70.0015C69.4445 20.9069 69.1296 20.6864 68.9359 20.4903C68.5726 20.0981 68.5726 19.6079 68.5968 19.4854V17.2305H69.5656V19.5589C69.5656 19.6079 69.5656 19.7795 69.6624 19.853C69.7351 19.9265 69.832 19.9511 70.0015 19.9511H77.1702C77.3156 19.9265 77.6788 19.853 77.6788 19.4609V17.3285H78.6476V19.4609C78.6476 20.4658 77.7999 20.8824 77.2187 20.9069Z" fill="#F05729"/>
<path d="M80.6098 23.0392H68.9364C68.3551 23.0392 67.8707 22.8676 67.5317 22.4999C67.0473 21.9852 67.0473 21.299 67.0715 21.1519V18.0146H68.0403V21.1764C68.0403 21.1764 68.0161 21.5686 68.2582 21.8137C68.4036 21.9607 68.6215 22.0343 68.9364 22.0343H80.6098V23.0392Z" fill="#F05729"/>
<path fill-rule="evenodd" clip-rule="evenodd" d="M72.1572 16.4212C72.1572 17.4507 72.9807 18.2595 73.9736 18.2595C74.9666 18.2595 75.79 17.4507 75.79 16.4212C75.79 15.3918 74.9908 14.583 73.9736 14.583C72.9564 14.583 72.1572 15.3918 72.1572 16.4212ZM73.1744 16.4212C73.1744 15.9801 73.5135 15.6124 73.9736 15.6124C74.4096 15.6124 74.7729 15.9801 74.7729 16.4212C74.7729 16.8624 74.4338 17.2301 73.9736 17.2301C73.5377 17.2301 73.1744 16.8624 73.1744 16.4212Z" fill="#F05729"/>
<path fill-rule="evenodd" clip-rule="evenodd" d="M76.3477 15.8822C76.3477 16.9116 77.1711 17.7204 78.1641 17.7204C79.157 17.7204 79.9805 16.9116 79.9805 15.8822C79.9805 14.8528 79.1813 14.0439 78.1641 14.0439C77.1469 14.0439 76.3477 14.8528 76.3477 15.8822ZM77.3648 15.8822C77.3648 15.441 77.7039 15.0734 78.1641 15.0734C78.6 15.0734 78.9633 15.441 78.9633 15.8822C78.9633 16.3234 78.6242 16.691 78.1641 16.691C77.7281 16.691 77.3648 16.3479 77.3648 15.8822Z" fill="#F05729"/>
<path fill-rule="evenodd" clip-rule="evenodd" d="M80.2949 22.2792C80.2949 23.3086 81.1184 24.1174 82.1113 24.1174C83.1043 24.1174 83.9277 23.3086 83.9277 22.2792C83.9277 21.2497 83.1285 20.4409 82.1113 20.4409C81.0941 20.4409 80.2949 21.2497 80.2949 22.2792ZM81.3121 22.2792C81.3121 21.838 81.6512 21.4703 82.1113 21.4703C82.5715 21.4703 82.9105 21.8135 82.9105 22.2792C82.9105 22.7203 82.5715 23.088 82.1113 23.088C81.6754 23.088 81.3121 22.7448 81.3121 22.2792Z" fill="#F05729"/>
<path fill-rule="evenodd" clip-rule="evenodd" d="M78.9873 12.3773C78.9873 13.4067 79.8107 14.2155 80.8037 14.2155C81.7967 14.2155 82.6201 13.4067 82.6201 12.3773C82.6201 11.3479 81.8209 10.5391 80.8037 10.5391C79.7865 10.5391 78.9873 11.3479 78.9873 12.3773ZM80.0045 12.3773C80.0045 11.9361 80.3436 11.5685 80.8037 11.5685C81.2396 11.5685 81.6029 11.9361 81.6029 12.3773C81.6029 12.8185 81.2639 13.1861 80.8037 13.1861C80.3678 13.1861 80.0045 12.8185 80.0045 12.3773Z" fill="#F05729"/>
<path fill-rule="evenodd" clip-rule="evenodd" d="M75.0391 9.43638C75.0391 10.4658 75.8625 11.2746 76.8555 11.2746C77.8484 11.2746 78.6719 10.4658 78.6719 9.43638C78.6719 8.40697 77.8727 7.59814 76.8555 7.59814C75.8383 7.59814 75.0391 8.40697 75.0391 9.43638ZM76.0562 9.43638C76.0562 8.9952 76.3953 8.62756 76.8555 8.62756C77.2914 8.62756 77.6547 8.9952 77.6547 9.43638C77.6547 9.87756 77.2914 10.2452 76.8555 10.2452C76.4195 10.2452 76.0562 9.87756 76.0562 9.43638Z" fill="#F05729"/>
<path fill-rule="evenodd" clip-rule="evenodd" d="M77.001 1.86265C77.001 2.89206 77.8244 3.70088 78.8174 3.70088C79.8104 3.70088 80.6338 2.89206 80.6338 1.86265C80.6338 0.833238 79.8346 0.0244141 78.8174 0.0244141C77.8002 0.0244141 77.001 0.833238 77.001 1.86265ZM78.0182 1.86265C78.0182 1.42147 78.3572 1.05383 78.8174 1.05383C79.2775 1.05383 79.6166 1.42147 79.6166 1.86265C79.6166 2.30383 79.2775 2.67147 78.8174 2.67147C78.3814 2.67147 78.0182 2.30383 78.0182 1.86265Z" fill="#F05729"/>
<path fill-rule="evenodd" clip-rule="evenodd" d="M58.8613 3.4315C58.8613 4.46091 59.6848 5.26973 60.6777 5.26973C61.6707 5.26973 62.4941 4.46091 62.4941 3.4315C62.4941 2.40209 61.6949 1.59326 60.6777 1.59326C59.6605 1.59326 58.8613 2.40209 58.8613 3.4315ZM59.8785 3.4315C59.8785 2.99032 60.2176 2.62267 60.6777 2.62267C61.1379 2.62267 61.477 2.99032 61.477 3.4315C61.477 3.87267 61.1379 4.24032 60.6777 4.24032C60.2418 4.24032 59.8785 3.87267 59.8785 3.4315Z" fill="#F05729"/>
<path fill-rule="evenodd" clip-rule="evenodd" d="M53.0488 23.0389C53.0488 24.0683 53.8723 24.8772 54.8652 24.8772C55.8582 24.8772 56.6816 24.0683 56.6816 23.0389C56.6816 22.0095 55.8824 21.2007 54.8652 21.2007C53.848 21.2007 53.0488 22.0095 53.0488 23.0389ZM54.066 23.0389C54.066 22.5977 54.4051 22.2301 54.8652 22.2301C55.3254 22.2301 55.6645 22.5977 55.6645 23.0389C55.6645 23.4801 55.3254 23.8477 54.8652 23.8477C54.4293 23.8477 54.066 23.4801 54.066 23.0389Z" fill="#F05729"/>
</svg>
