<svg width="40" height="40" viewBox="0 0 40 40" fill="none" xmlns="http://www.w3.org/2000/svg">
<g clip-path="url(#clip0)">
<path d="M34.1458 5.85789C33.6883 5.40023 32.9462 5.40023 32.4886 5.85789C32.0309 6.31555 32.0309 7.0575 32.4886 7.51516C35.8211 10.8476 37.6563 15.2815 37.6563 20C37.6563 24.7185 35.8211 29.1524 32.4886 32.4848C32.0309 32.9424 32.0309 33.6845 32.4886 34.1421C32.947 34.6006 33.689 34.599 34.1458 34.1421C37.921 30.367 40.0001 25.3446 40.0001 20C40.0001 14.6554 37.921 9.63297 34.1458 5.85789Z" fill="#F4573C"/>
<path d="M30.5973 9.40623C30.1397 8.94865 29.3976 8.94865 28.94 9.40623C28.4825 9.86389 28.4825 10.6058 28.94 11.0635C31.3254 13.4487 32.6392 16.6225 32.6392 20C32.6392 23.3775 31.3255 26.5512 28.94 28.9365C28.4824 29.3941 28.4824 30.1361 28.94 30.5937C29.3975 31.0512 30.1395 31.0515 30.5973 30.5937C33.4254 27.7658 34.9829 24.0035 34.9829 19.9999C34.9829 15.9963 33.4254 12.2341 30.5973 9.40623Z" fill="#F4573C"/>
<path d="M27.0463 12.9572C26.5886 12.4996 25.8466 12.4996 25.389 12.9572C24.9314 13.4149 24.9314 14.1569 25.389 14.6145C26.8265 16.0518 27.6182 17.9645 27.6182 19.9999C27.6182 22.0354 26.8265 23.9481 25.389 25.3854C24.9314 25.843 24.9314 26.585 25.389 27.0427C25.8466 27.5002 26.5885 27.5004 27.0463 27.0427C28.9264 25.1626 29.9619 22.6614 29.9619 19.9999C29.9619 17.3383 28.9264 14.8373 27.0463 12.9572Z" fill="#F4573C"/>
<path d="M2.34375 20.0003C2.34375 15.2818 4.17898 10.8479 7.51148 7.51549C7.96914 7.05791 7.96914 6.31588 7.51148 5.85823C7.05391 5.40065 6.31195 5.40057 5.85422 5.85823C2.07906 9.63331 0 14.6557 0 20.0003C0 25.3449 2.07906 30.3674 5.85422 34.1424C6.31172 34.6 7.05383 34.6002 7.51148 34.1424C7.96914 33.6848 7.96914 32.9428 7.51148 32.4852C4.17898 29.1528 2.34375 24.7189 2.34375 20.0003Z" fill="#F4573C"/>
<path d="M7.36084 20C7.36084 16.6225 8.67451 13.4488 11.06 11.0635C11.5176 10.6059 11.5176 9.86392 11.06 9.40626C10.6024 8.94861 9.86037 8.94868 9.40272 9.40626C6.57459 12.2342 5.01709 15.9965 5.01709 20C5.01709 24.0035 6.57459 27.7659 9.40272 30.5938C9.861 31.052 10.603 31.0509 11.06 30.5938C11.5176 30.1362 11.5176 29.3942 11.06 28.9366C8.67451 26.5513 7.36084 23.3775 7.36084 20Z" fill="#F4573C"/>
<path d="M14.611 12.9573C14.1535 12.4996 13.4114 12.4996 12.9538 12.9573C11.0736 14.8373 10.0381 17.3385 10.0381 20.0001C10.0381 22.6616 11.0736 25.1628 12.9538 27.0429C13.4121 27.5011 14.154 27.4999 14.611 27.0429C15.0687 26.5852 15.0686 25.8432 14.611 25.3856C13.1735 23.9483 12.3819 22.0356 12.3819 20.0001C12.3819 17.9647 13.1735 16.052 14.611 14.6147C15.0686 14.1569 15.0686 13.4149 14.611 12.9573Z" fill="#F4573C"/>
<path d="M20 15.0625C17.2774 15.0625 15.0625 17.2775 15.0625 20C15.0625 22.7225 17.2775 24.9375 20 24.9375C22.7225 24.9375 24.9375 22.7225 24.9375 20C24.9375 17.2775 22.7226 15.0625 20 15.0625ZM20 22.5938C18.5698 22.5938 17.4063 21.4302 17.4063 20C17.4063 18.5698 18.5698 17.4063 20 17.4063C21.4302 17.4063 22.5938 18.5698 22.5938 20C22.5938 21.4302 21.4302 22.5938 20 22.5938Z" fill="#F4573C"/>
</g>
<defs>
<clipPath id="clip0">
<rect width="40" height="40" fill="white"/>
</clipPath>
</defs>
</svg>
