<svg width="15" height="15" viewBox="0 0 15 15" fill="none" xmlns="http://www.w3.org/2000/svg">
<g clip-path="url(#clip0)">
<path d="M14.6906 0.309494C14.4311 0.0499527 14.0626 -0.0552231 13.7052 0.0281558C13.7036 0.0285367 13.7019 0.0289175 13.7003 0.0293277L1.92062 2.91223C0.789785 3.18897 0 4.19534 0 5.35954V6.91418C0 7.48058 0.448799 7.94414 1.00948 7.9679L5.44043 8.72212C5.53406 8.73806 5.6296 8.70762 5.69675 8.64047L10.9185 3.41865C11.1016 3.23561 11.3984 3.23561 11.5815 3.41865C11.7645 3.60173 11.7645 3.89851 11.5815 4.08158L6.35968 9.3034C6.29253 9.37055 6.26209 9.46609 6.27803 9.55972L7.03222 13.9907C7.05598 14.5513 7.51954 15.0001 8.08594 15.0001H9.64058C10.8048 15.0001 11.8112 14.2103 12.0879 13.0795L14.9708 1.29985C14.9712 1.2982 14.9716 1.29656 14.9719 1.29492C15.0554 0.937443 14.9502 0.569064 14.6906 0.309494Z" fill="black"/>
</g>
<defs>
<clipPath id="clip0">
<rect width="15" height="15" fill="white"/>
</clipPath>
</defs>
</svg>
