<svg width="404" height="52" viewBox="0 0 404 52" fill="none" xmlns="http://www.w3.org/2000/svg">
<path fill-rule="evenodd" clip-rule="evenodd" d="M50.0741 3.15479H0V15.1454H17.2431V51.4355H32.831V15.1559H50.0741V3.16521V3.15479Z" fill="#F4573C"/>
<path fill-rule="evenodd" clip-rule="evenodd" d="M70.6952 39.7105C69.6653 39.8309 68.6242 39.6131 67.7288 39.0901C67.2478 38.6219 66.9963 37.9664 67.0407 37.2967V32.0547H93.3862V21.5707H67.0407V17.9214C66.9364 17.0514 67.2228 16.18 67.8227 15.5415C68.5168 15.0556 69.3576 14.8244 70.2026 14.8872H94.0822V3.1572H59.3849C57.2547 3.02018 55.154 3.7123 53.5225 5.08874C52.0739 6.54676 51.3203 8.55606 51.4528 10.6071V43.7117C51.2391 45.9638 52.0487 48.1928 53.658 49.7826C55.3612 50.9994 57.4351 51.5846 59.523 51.4379H94.2829V39.7079L70.6952 39.7105Z" fill="#F4573C"/>
<path fill-rule="evenodd" clip-rule="evenodd" d="M152.842 2.60485C150.508 2.51048 148.181 2.91021 146.012 3.77785C143.269 5.16333 141.24 7.64411 140.426 10.6073L132.632 34.0673C132.921 34.7293 132.724 35.5027 132.154 35.9459C131.583 36.389 130.785 36.389 130.215 35.9459C129.645 35.5027 129.448 34.7293 129.736 34.0673L121.942 10.6073C121.127 7.64378 119.097 5.16302 116.354 3.77785C114.209 2.9137 111.905 2.51391 109.595 2.60485C101.686 2.60485 97.7316 5.43308 97.7316 11.0895V51.4355H113.39L112.905 22.0532C112.905 20.9966 113.089 20.4675 113.458 20.4657C114.012 20.8751 114.364 21.5024 114.425 22.1887L121.872 45.5028C122.301 47.2056 123.156 48.7716 124.356 50.054C128.544 52.6297 133.825 52.6297 138.012 50.054C139.211 48.7713 140.065 47.2054 140.494 45.5028L147.944 22.1913C148.004 21.5047 148.356 20.877 148.911 20.4683C149.323 20.4683 149.531 20.9897 149.531 22.0558L148.979 51.4355H164.705V11.0869C164.705 5.43047 160.75 2.60311 152.842 2.60485Z" fill="#F4573C"/>
<path fill-rule="evenodd" clip-rule="evenodd" d="M205.259 3.147H178.567C176.167 2.98546 173.819 3.89509 172.155 5.63116C170.73 7.53123 170.044 9.88398 170.223 12.2521V51.4355H185.811V37.5029H206.169C209.222 37.6908 212.238 36.7594 214.654 34.8832C217.551 32.3999 218.999 27.3421 218.999 19.7098C218.999 13.5024 217.803 9.11105 215.412 6.53567C212.639 4.04308 208.964 2.81491 205.259 3.147ZM196.978 25.5015H185.811V17.9839C185.683 17.2268 185.92 16.4538 186.449 15.8974C186.978 15.3411 187.738 15.0663 188.501 15.1557H197.121C198.846 14.9819 200.579 15.3823 202.053 16.2948C203.04 17.2838 203.534 18.6626 203.398 20.0536C203.534 21.5461 203.103 23.0352 202.191 24.2243C200.673 25.2866 198.814 25.7411 196.978 25.5015Z" fill="#F4573C"/>
<path fill-rule="evenodd" clip-rule="evenodd" d="M264.037 39.4343H250.657C248.301 39.5145 245.942 39.3529 243.619 38.952C241.637 38.6084 239.915 37.3931 238.927 35.6416C237.963 33.0911 237.563 30.3616 237.757 27.6417C237.57 24.6591 238.114 21.6759 239.341 18.9511C240.25 17.248 241.868 16.0356 243.757 15.6406C245.939 15.2348 248.16 15.073 250.378 15.1584H263.255V3.16772H242.84C234.884 3.16772 229.251 5.26001 225.941 9.44458C223.136 13.0313 221.733 19.1926 221.733 27.9284C221.733 35.9761 223.204 41.8385 226.146 45.5156C227.92 47.7685 230.32 49.4478 233.044 50.3432C236.169 51.1757 239.399 51.5472 242.631 51.4458H264.006V39.4551L264.037 39.4343Z" fill="#272829"/>
<path fill-rule="evenodd" clip-rule="evenodd" d="M312.521 7.56784C309.756 5.24031 306.38 3.75565 302.796 3.2903C295.236 2.37068 287.593 2.37068 280.034 3.2903C276.45 3.75565 273.074 5.24031 270.309 7.56784C267.804 10.0736 266.161 13.3105 265.617 16.8111C265.037 20.2744 264.784 23.7844 264.858 27.2951C264.784 30.7867 265.038 34.2776 265.617 37.7218C266.165 41.2235 267.792 44.4667 270.272 46.9989C273.055 49.369 276.473 50.8683 280.102 51.3103C287.615 52.2299 295.212 52.2299 302.725 51.3103C306.353 50.8678 309.77 49.3685 312.552 46.9989C315.033 44.4673 316.661 41.2238 317.208 37.7218C317.786 34.2776 318.04 30.7867 317.966 27.2951C318.041 23.7844 317.787 20.2744 317.208 16.8111C316.67 13.3099 315.027 10.0725 312.521 7.56784ZM296.529 39.4344C294.865 39.8708 293.145 40.0571 291.425 39.987C289.706 40.0508 287.987 39.8646 286.321 39.4344C284.803 38.8898 283.516 37.8434 282.672 36.4681C281.255 33.6291 280.635 30.4588 280.879 27.2952C280.624 24.131 281.244 20.9576 282.672 18.1223C283.516 16.7476 284.803 15.7013 286.321 15.156C287.987 14.7263 289.706 14.5402 291.425 14.6033C293.145 14.5339 294.865 14.7201 296.529 15.156C298.032 15.728 299.311 16.768 300.179 18.1223C300.99 19.3257 301.531 20.6909 301.763 22.1236C301.94 23.8415 302.009 25.5687 301.972 27.2952C302.237 30.46 301.616 33.6361 300.179 36.4681C299.312 37.8231 298.033 38.8632 296.529 39.4344Z" fill="#272829"/>
<path fill-rule="evenodd" clip-rule="evenodd" d="M351.493 3.15478H329.49C327.292 3.03376 325.158 3.92252 323.696 5.56856C322.465 7.4182 321.906 9.63348 322.111 11.8454V44.2619C322.018 46.2925 322.825 48.2607 324.316 49.6421C325.936 50.9356 327.982 51.5754 330.051 51.4354H352.663C358.01 51.8665 363.217 49.5876 366.528 45.3671C369.01 41.9646 370.251 35.8493 370.253 27.0214C370.253 18.3777 368.805 12.3772 365.908 9.01978C362.242 4.97608 356.939 2.8193 351.493 3.15478ZM352.113 36.6768C350.549 38.5171 347.537 39.4364 343.076 39.4347H340.933C340.038 39.5191 339.146 39.2464 338.452 38.6761C337.845 37.8401 337.574 36.8064 337.693 35.7801V17.9844C337.562 16.9847 337.921 15.9832 338.658 15.2944C339.388 14.87 340.229 14.6773 341.071 14.7417H342.244C345.314 14.4191 348.402 15.1489 351.003 16.8114C353.152 18.6969 354.227 22.0534 354.227 26.881C354.227 31.7085 353.515 34.9729 352.09 36.6742L352.113 36.6768Z" fill="#272829"/>
<path fill-rule="evenodd" clip-rule="evenodd" d="M402.67 8.28215C402.352 6.24207 401.394 4.35559 399.936 2.89417C398.322 1.53812 396.354 0.673273 394.263 0.4022C389.857 -0.134067 385.402 -0.134067 380.996 0.4022C378.906 0.672757 376.938 1.5377 375.326 2.89417C373.866 4.35419 372.908 6.24134 372.592 8.28215C372.001 12.3219 372.001 16.426 372.592 20.4657C372.91 22.5076 373.859 24.3988 375.305 25.8745C376.929 27.2566 378.923 28.1305 381.04 28.3874C385.42 28.9236 389.849 28.9236 394.23 28.3874C396.346 28.1305 398.341 27.2566 399.964 25.8745C401.41 24.398 402.36 22.5073 402.68 20.4657C403.268 16.4258 403.268 12.3221 402.68 8.28215H402.67ZM392.736 19.7514C392.23 20.5414 391.483 21.1474 390.606 21.4796C389.635 21.7335 388.632 21.8415 387.629 21.8002C386.623 21.8402 385.617 21.733 384.642 21.4822C383.755 21.166 383.003 20.5562 382.51 19.754C381.684 18.0984 381.324 16.2496 381.467 14.4051C381.317 12.5603 381.678 10.7097 382.51 9.05625C383.003 8.25444 383.755 7.64484 384.642 7.32803C385.613 7.07799 386.615 6.97 387.616 7.00741C388.619 6.9665 389.622 7.07455 390.593 7.32803C391.47 7.66056 392.217 8.2665 392.723 9.05625C393.196 9.7581 393.511 10.5539 393.648 11.3892C393.75 12.3911 393.79 13.3983 393.768 14.4051C393.925 16.2504 393.564 18.1028 392.725 19.754L392.736 19.7514Z" fill="#272829"/>
</svg>
