<svg width="424" height="425" viewBox="0 0 424 425" fill="none" xmlns="http://www.w3.org/2000/svg">
<path d="M209.735 51.4429L253.278 76.1294L253.614 126.321L210.406 151.717L166.863 127.031L166.527 76.8393L209.735 51.4429ZM209.289 1.14386L122.765 52.0468L123.546 152.429L210.852 202.016L297.377 151.114L296.595 50.7317L209.289 1.14386Z" fill="#F0002F"/>
<path d="M308.809 217.274L352.352 241.96L352.688 292.152L309.48 317.548L265.937 292.862L265.601 242.67L308.809 217.274ZM308.365 167.083L221.839 217.877L222.62 318.259L309.927 367.847L396.451 316.944L395.67 216.562L308.365 167.083Z" fill="black"/>
<path d="M115.063 218.961L158.606 243.647L158.942 293.839L115.733 319.235L72.1904 294.549L71.8543 244.357L115.063 218.961ZM114.725 168.66L28.2011 219.563L28.9821 319.945L116.289 369.533L202.813 318.63L202.032 218.248L114.725 168.66Z" fill="#F0002F"/>
</svg>
